<svg width="821" height="76" viewBox="0 0 821 76" fill="none" xmlns="http://www.w3.org/2000/svg">
<path d="M65.4901 26.7344C63.4659 9.9375 50.7528 0.278406 33.9205 0.278406C14.7088 0.278406 0.0426137 13.8438 0.0426137 37.6364C0.0426137 61.358 14.4602 74.9943 33.9205 74.9943C52.5639 74.9943 63.821 62.6009 65.4901 49.2131L49.9361 49.142C48.4801 56.919 42.3722 61.3935 34.169 61.3935C23.125 61.3935 15.6321 53.1903 15.6321 37.6364C15.6321 22.5085 23.0185 13.8793 34.2756 13.8793C42.6918 13.8793 48.7642 18.7443 49.9361 26.7344H65.4901ZM101.09 75.0653C114.585 75.0653 123.675 68.4957 125.806 58.375L111.815 57.4517C110.288 61.6065 106.381 63.7727 101.339 63.7727C93.7749 63.7727 88.9808 58.7656 88.9808 50.6335V50.598H126.126V46.4432C126.126 27.9062 114.904 18.7443 100.487 18.7443C84.4354 18.7443 74.0305 30.1435 74.0305 46.9759C74.0305 64.2699 84.2933 75.0653 101.09 75.0653ZM88.9808 41.223C89.3004 35.0085 94.0234 30.0369 100.735 30.0369C107.305 30.0369 111.85 34.7244 111.886 41.223H88.9808ZM151.126 42.4659C151.161 35.4347 155.352 31.3153 161.46 31.3153C167.532 31.3153 171.19 35.2926 171.154 41.9688V74H186.282V39.2699C186.282 26.5568 178.825 18.7443 167.461 18.7443C159.364 18.7443 153.505 22.7216 151.055 29.0781H150.415V19.4545H135.998V74H151.126V42.4659ZM227.218 19.4545H216.955V6.38636H201.827V19.4545H194.37V30.8182H201.827V59.2273C201.756 69.9162 209.036 75.2074 220.009 74.7457C223.915 74.6037 226.685 73.8224 228.212 73.3253L225.833 62.0682C225.087 62.2102 223.489 62.5653 222.069 62.5653C219.05 62.5653 216.955 61.429 216.955 57.2386V30.8182H227.218V19.4545ZM237.072 74H252.2V43.1406C252.2 36.429 257.1 31.8125 263.777 31.8125C265.872 31.8125 268.748 32.1676 270.169 32.6293V19.206C268.819 18.8864 266.937 18.6733 265.41 18.6733C259.302 18.6733 254.295 22.2244 252.306 28.9716H251.738V19.4545H237.072V74ZM291.982 75.0298C300.043 75.0298 305.263 71.5142 307.926 66.4361H308.352V74H322.699V37.2102C322.699 24.2131 311.69 18.7443 299.545 18.7443C286.477 18.7443 277.884 24.9943 275.788 34.9375L289.78 36.0739C290.81 32.4517 294.041 29.7884 299.474 29.7884C304.624 29.7884 307.571 32.3807 307.571 36.8551V37.0682C307.571 40.5838 303.842 41.0455 294.361 41.9688C283.565 42.9631 273.871 46.5852 273.871 58.7656C273.871 69.5611 281.577 75.0298 291.982 75.0298ZM296.314 64.5895C291.662 64.5895 288.324 62.4233 288.324 58.2685C288.324 54.0071 291.839 51.9119 297.166 51.1662C300.469 50.7045 305.866 49.9233 307.678 48.7159V54.5043C307.678 60.2216 302.955 64.5895 296.314 64.5895ZM349.563 1.27273H334.435V74H349.563V1.27273Z" fill="#008EFF"/>
<path d="M361.966 74H393.038C409.373 74 418.074 65.4773 418.074 53.9006C418.074 43.1406 410.368 36.642 402.093 36.2514V35.5412C409.657 33.8366 415.233 28.4744 415.233 19.9162C415.233 9.0142 407.136 1.27273 391.085 1.27273H361.966V74ZM377.342 61.429V42.1108H390.233C397.619 42.1108 402.2 46.3722 402.2 52.3736C402.2 57.8423 398.471 61.429 389.877 61.429H377.342ZM377.342 31.706V13.7017H389.025C395.843 13.7017 399.714 17.2173 399.714 22.473C399.714 28.2259 395.027 31.706 388.741 31.706H377.342ZM452.44 75.0653C468.988 75.0653 479.286 63.7372 479.286 46.9403C479.286 30.0369 468.988 18.7443 452.44 18.7443C435.891 18.7443 425.593 30.0369 425.593 46.9403C425.593 63.7372 435.891 75.0653 452.44 75.0653ZM452.511 63.3466C444.876 63.3466 440.969 56.3509 440.969 46.8338C440.969 37.3168 444.876 30.2855 452.511 30.2855C460.004 30.2855 463.91 37.3168 463.91 46.8338C463.91 56.3509 460.004 63.3466 452.511 63.3466ZM489.123 74H504.251V43.1406C504.251 36.429 509.151 31.8125 515.827 31.8125C517.923 31.8125 520.799 32.1676 522.219 32.6293V19.206C520.87 18.8864 518.988 18.6733 517.461 18.6733C511.353 18.6733 506.346 22.2244 504.357 28.9716H503.789V19.4545H489.123V74ZM547.601 74.8878C556.408 74.8878 560.989 69.8097 563.084 65.2642H563.723V74H578.638V1.27273H563.546V28.6165H563.084C561.06 24.1776 556.692 18.7443 547.566 18.7443C535.598 18.7443 525.478 28.0483 525.478 46.7983C525.478 65.0511 535.172 74.8878 547.601 74.8878ZM552.395 62.8494C544.973 62.8494 540.925 56.2443 540.925 46.7273C540.925 37.2812 544.902 30.7827 552.395 30.7827C559.746 30.7827 563.865 36.9972 563.865 46.7273C563.865 56.4574 559.675 62.8494 552.395 62.8494ZM606.63 75.0298C614.691 75.0298 619.911 71.5142 622.575 66.4361H623.001V74H637.347V37.2102C637.347 24.2131 626.339 18.7443 614.194 18.7443C601.126 18.7443 592.532 24.9943 590.437 34.9375L604.428 36.0739C605.458 32.4517 608.69 29.7884 614.123 29.7884C619.272 29.7884 622.219 32.3807 622.219 36.8551V37.0682C622.219 40.5838 618.491 41.0455 609.009 41.9688C598.214 42.9631 588.519 46.5852 588.519 58.7656C588.519 69.5611 596.225 75.0298 606.63 75.0298ZM610.962 64.5895C606.31 64.5895 602.972 62.4233 602.972 58.2685C602.972 54.0071 606.488 51.9119 611.815 51.1662C615.117 50.7045 620.515 49.9233 622.326 48.7159V54.5043C622.326 60.2216 617.603 64.5895 610.962 64.5895ZM669.183 74.8878C677.99 74.8878 682.571 69.8097 684.666 65.2642H685.305V74H700.22V1.27273H685.128V28.6165H684.666C682.642 24.1776 678.274 18.7443 669.148 18.7443C657.18 18.7443 647.06 28.0483 647.06 46.7983C647.06 65.0511 656.754 74.8878 669.183 74.8878ZM673.977 62.8494C666.555 62.8494 662.507 56.2443 662.507 46.7273C662.507 37.2812 666.484 30.7827 673.977 30.7827C681.328 30.7827 685.447 36.9972 685.447 46.7273C685.447 56.4574 681.257 62.8494 673.977 62.8494ZM737.303 75.0653C753.851 75.0653 764.15 63.7372 764.15 46.9403C764.15 30.0369 753.851 18.7443 737.303 18.7443C720.755 18.7443 710.456 30.0369 710.456 46.9403C710.456 63.7372 720.755 75.0653 737.303 75.0653ZM737.374 63.3466C729.739 63.3466 725.833 56.3509 725.833 46.8338C725.833 37.3168 729.739 30.2855 737.374 30.2855C744.867 30.2855 748.773 37.3168 748.773 46.8338C748.773 56.3509 744.867 63.3466 737.374 63.3466ZM819.37 35.0085C818.02 24.9588 809.924 18.7443 796.145 18.7443C782.189 18.7443 772.992 25.2074 773.027 35.7188C772.992 43.8864 778.141 49.1776 788.794 51.3082L798.24 53.1903C802.999 54.1491 805.165 55.8892 805.236 58.6236C805.165 61.8551 801.65 64.1634 796.358 64.1634C790.961 64.1634 787.374 61.8551 786.451 57.4162L771.571 58.1974C772.992 68.6378 781.87 75.0653 796.323 75.0653C810.456 75.0653 820.577 67.8565 820.613 57.0966C820.577 49.2131 815.428 44.4901 804.846 42.3239L794.973 40.3352C789.895 39.2344 788.013 37.4943 788.049 34.8665C788.013 31.5994 791.706 29.4688 796.394 29.4688C801.65 29.4688 804.775 32.3452 805.52 35.8608L819.37 35.0085Z" fill="black"/>
</svg>
