<svg width="236" height="246" viewBox="0 0 236 246" fill="none" xmlns="http://www.w3.org/2000/svg">
<path d="M153.514 240.297C135.921 246.085 117.272 247.492 99.0636 244.406C80.855 241.32 63.5942 233.827 48.6668 222.528C33.7395 211.23 21.5614 196.44 13.1103 179.348C4.65928 162.255 0.170637 143.334 0.00476977 124.106C-0.161097 104.877 4.00043 85.8761 12.1553 68.6276C20.3101 51.379 32.2311 36.3638 46.9611 24.7873C61.6912 13.2107 78.8199 5.3954 96.9723 1.96872C115.125 -1.45797 133.795 -0.400543 151.484 5.05609L147.118 20.4359C131.735 15.6908 115.5 14.7713 99.7143 17.7511C83.929 20.731 69.0338 27.5272 56.2245 37.5942C43.4153 47.6611 33.0488 60.7184 25.9574 75.7177C18.8659 90.717 15.2471 107.241 15.3913 123.962C15.5355 140.683 19.4389 157.136 26.7879 172C34.137 186.864 44.727 199.725 57.7078 209.55C70.6887 219.375 85.6987 225.891 101.533 228.575C117.367 231.258 133.584 230.034 148.883 225.002L153.514 240.297Z" fill="#008EFF"/>
<path d="M107.246 43.3504C117.795 41.2225 128.596 42.0798 138.782 45.8535C148.969 49.6272 158.257 56.2121 165.901 65.0797C173.545 73.9473 179.332 84.8504 182.798 96.9138C186.263 108.977 187.311 121.865 185.856 134.542C184.401 147.219 180.484 159.333 174.42 169.91C168.356 180.487 160.314 189.234 150.939 195.448C141.564 201.661 131.117 205.169 120.438 205.689C109.758 206.209 99.1436 203.727 89.4457 198.442L92.5539 190.377C101.201 195.09 110.666 197.303 120.189 196.839C129.712 196.376 139.027 193.248 147.387 187.707C155.746 182.167 162.917 174.367 168.325 164.936C173.732 155.504 177.224 144.702 178.522 133.398C179.819 122.094 178.885 110.602 175.795 99.8457C172.705 89.0889 167.545 79.3666 160.729 71.4595C153.912 63.5524 145.63 57.6807 136.547 54.3157C127.464 50.9507 117.832 50.1863 108.426 52.0837L107.246 43.3504Z" fill="#002093"/>
<path d="M203 123.5C203 179.005 162.706 224 113 224C63.2944 224 23 179.005 23 123.5C23 67.9954 63.2944 23 113 23C162.706 23 203 67.9954 203 123.5ZM34.8902 123.5C34.8902 171.672 69.8612 210.723 113 210.723C156.139 210.723 191.11 171.672 191.11 123.5C191.11 75.3283 156.139 36.2774 113 36.2774C69.8612 36.2774 34.8902 75.3283 34.8902 123.5Z" fill="black"/>
<g style="mix-blend-mode:darken">
<path d="M88.1733 161H117.612C134.267 161 142.435 152.513 142.435 141.185C142.435 130.176 134.622 123.713 126.881 123.322V122.612C133.983 120.943 139.594 115.972 139.594 107.129C139.594 96.2983 131.781 88.2727 116.014 88.2727H88.1733V161ZM101.348 149.991V128.685H115.872C124.004 128.685 129.047 133.656 129.047 140.155C129.047 145.943 125.07 149.991 115.517 149.991H101.348ZM101.348 119.203V99.1392H114.665C122.406 99.1392 126.419 103.223 126.419 108.834C126.419 115.226 121.234 119.203 114.381 119.203H101.348Z" fill="black"/>
</g>
</svg>
