<svg width="206" height="203" viewBox="0 0 206 203" fill="none" xmlns="http://www.w3.org/2000/svg">
<path d="M133.999 198.294C118.643 203.07 102.365 204.231 86.4708 201.685C70.5769 199.138 55.5102 192.955 42.4804 183.631C29.4505 174.308 18.8206 162.103 11.4438 147.998C4.067 133.893 0.148946 118.28 0.00416344 102.413C-0.140619 86.5451 3.4919 70.8652 10.6101 56.6317C17.7283 42.3982 28.1339 30.0075 40.9915 20.4545C53.8491 10.9015 68.8004 4.4523 84.6453 1.62459C100.49 -1.20312 116.787 -0.33053 132.228 4.1723L129.568 13.0303C115.532 8.93728 100.719 8.1441 86.3158 10.7145C71.913 13.2848 58.3224 19.1471 46.635 27.8306C34.9476 36.5142 25.4891 47.7771 19.0187 60.7152C12.5483 73.6534 9.24642 87.9062 9.37803 102.33C9.50963 116.753 13.0711 130.945 19.7765 143.766C26.4819 156.588 36.1444 167.681 47.9884 176.156C59.8323 184.631 73.5277 190.252 87.9751 192.567C102.423 194.881 117.219 193.826 131.178 189.485L133.999 198.294Z" fill="#4B9DE0"/>
<path d="M87.4528 20.0074C100.482 17.9429 113.84 18.8658 126.453 22.7022C139.067 26.5385 150.585 33.1814 160.083 42.0974C169.581 51.0135 176.795 61.9544 181.144 74.0418C185.494 86.1292 186.859 99.0263 185.129 111.698C183.399 124.369 178.623 136.462 171.184 147.005C163.745 157.549 153.851 166.249 142.295 172.407C130.739 178.566 117.844 182.011 104.644 182.466C91.4448 182.922 78.3089 180.375 66.2912 175.029L67.6241 172.206C79.185 177.348 91.8217 179.798 104.519 179.36C117.217 178.922 129.623 175.608 140.739 169.683C151.856 163.759 161.375 155.389 168.531 145.247C175.687 135.104 180.282 123.471 181.946 111.281C183.61 99.0909 182.297 86.6839 178.113 75.0559C173.928 63.4278 166.989 52.9027 157.852 44.3255C148.714 35.7482 137.634 29.3578 125.5 25.6673C113.365 21.9767 100.515 21.0888 87.9814 23.0749L87.4528 20.0074Z" fill="#4B9DE0"/>
<path d="M193 101C193 150.706 152.706 191 103 191C53.2944 191 13 150.706 13 101C13 51.2944 53.2944 11 103 11C152.706 11 193 51.2944 193 101ZM17.9027 101C17.9027 147.998 56.0021 186.097 103 186.097C149.998 186.097 188.097 147.998 188.097 101C188.097 54.0021 149.998 15.9027 103 15.9027C56.0021 15.9027 17.9027 54.0021 17.9027 101Z" fill="black"/>
<g style="mix-blend-mode:darken">
<path d="M73.4446 137H101.321C118.224 137 127.28 128.548 129.162 117.433C130.973 106.176 124.119 99.8196 117.017 99.429L117.159 98.7188C124.013 97.0142 130.334 92.4688 131.861 83.3778C133.707 72.6179 127.635 64.2727 112.152 64.2727H85.5185L73.4446 137ZM85.9801 127.589L89.8864 104.294H106.115C114.957 104.294 119.432 109.976 118.366 116.901C117.301 123.009 112.33 127.589 101.818 127.589H85.9801ZM91.3423 95.7358L94.9645 73.6122H109.95C118.651 73.6122 122.024 78.1932 120.959 84.2301C119.929 91.2259 113.395 95.7358 106.009 95.7358H91.3423Z" fill="black"/>
</g>
</svg>
